<svg width="554" height="66" viewBox="0 0 554 66" fill="none" xmlns="http://www.w3.org/2000/svg">
<rect x="0.791016" width="376" height="66" rx="33" fill="#FAFAFA"/>
<circle cx="342.791" cy="33" r="28" fill="#7EB693"/>
<path d="M354.469 40.8921L349.709 36.1315C350.855 34.6057 351.473 32.7485 351.471 30.8402C351.471 25.9657 347.506 22 342.631 22C337.757 22 333.791 25.9657 333.791 30.8402C333.791 35.7146 337.757 39.6803 342.631 39.6803C344.539 39.6824 346.397 39.0637 347.923 37.9175L352.683 42.6781C352.924 42.8936 353.238 43.0085 353.561 42.9995C353.885 42.9905 354.192 42.8581 354.421 42.6295C354.649 42.401 354.781 42.0936 354.791 41.7705C354.8 41.4474 354.685 41.1331 354.469 40.8921ZM336.317 30.8402C336.317 29.5913 336.687 28.3705 337.381 27.3321C338.075 26.2937 339.061 25.4843 340.215 25.0064C341.369 24.5285 342.638 24.4034 343.863 24.6471C345.088 24.8907 346.213 25.4921 347.096 26.3752C347.979 27.2583 348.581 28.3834 348.824 29.6083C349.068 30.8332 348.943 32.1028 348.465 33.2566C347.987 34.4104 347.178 35.3966 346.139 36.0904C345.101 36.7842 343.88 37.1546 342.631 37.1546C340.957 37.1526 339.352 36.4866 338.168 35.3029C336.985 34.1192 336.319 32.5142 336.317 30.8402Z" fill="#FAFAFA"/>
<rect x="395.291" y="0.5" width="158" height="65" rx="32.5" stroke="#E0E0E0"/>
<path d="M477.501 33.79H479.918C479.854 34.6455 479.616 35.4043 479.206 36.0664C478.796 36.7227 478.225 37.2383 477.492 37.6133C476.76 37.9883 475.872 38.1758 474.829 38.1758C474.026 38.1758 473.303 38.0352 472.658 37.7539C472.02 37.4668 471.472 37.0596 471.015 36.5322C470.563 35.999 470.218 35.3604 469.978 34.6162C469.737 33.8662 469.617 33.0254 469.617 32.0938V31.1182C469.617 30.1865 469.74 29.3457 469.986 28.5957C470.232 27.8457 470.584 27.207 471.041 26.6797C471.504 26.1465 472.058 25.7363 472.702 25.4492C473.353 25.1621 474.079 25.0186 474.882 25.0186C475.925 25.0186 476.807 25.2119 477.527 25.5986C478.248 25.9795 478.808 26.5039 479.206 27.1719C479.604 27.8398 479.845 28.6074 479.927 29.4746H477.51C477.463 28.9355 477.346 28.4785 477.158 28.1035C476.977 27.7285 476.701 27.4443 476.332 27.251C475.969 27.0518 475.485 26.9521 474.882 26.9521C474.413 26.9521 474 27.04 473.643 27.2158C473.291 27.3916 472.998 27.6553 472.764 28.0068C472.529 28.3525 472.354 28.7861 472.236 29.3076C472.119 29.8232 472.061 30.4209 472.061 31.1006V32.0938C472.061 32.7441 472.113 33.3271 472.219 33.8428C472.324 34.3584 472.488 34.7949 472.711 35.1523C472.934 35.5098 473.221 35.7822 473.572 35.9697C473.924 36.1572 474.343 36.251 474.829 36.251C475.421 36.251 475.901 36.1572 476.271 35.9697C476.646 35.7822 476.93 35.5068 477.123 35.1436C477.322 34.7803 477.448 34.3291 477.501 33.79ZM486.853 35.9785V31.5928C486.853 31.2705 486.797 30.9922 486.686 30.7578C486.574 30.5234 486.404 30.3418 486.176 30.2129C485.947 30.084 485.657 30.0195 485.306 30.0195C484.995 30.0195 484.723 30.0723 484.488 30.1777C484.26 30.2832 484.084 30.4326 483.961 30.626C483.838 30.8135 483.776 31.0303 483.776 31.2764H481.447C481.447 30.8838 481.541 30.5117 481.729 30.1602C481.916 29.8027 482.183 29.4863 482.528 29.2109C482.88 28.9297 483.299 28.71 483.785 28.5518C484.277 28.3936 484.828 28.3145 485.438 28.3145C486.158 28.3145 486.8 28.4375 487.362 28.6836C487.931 28.9238 488.376 29.2871 488.698 29.7734C489.026 30.2598 489.19 30.8721 489.19 31.6104V35.7588C489.19 36.2334 489.22 36.6406 489.278 36.9805C489.343 37.3145 489.437 37.6045 489.56 37.8506V38H487.195C487.084 37.7598 486.999 37.4551 486.94 37.0859C486.882 36.7109 486.853 36.3418 486.853 35.9785ZM487.178 32.208L487.195 33.5879H485.728C485.364 33.5879 485.045 33.626 484.77 33.7021C484.494 33.7725 484.269 33.8779 484.093 34.0186C483.917 34.1533 483.785 34.3174 483.697 34.5107C483.609 34.6982 483.565 34.9121 483.565 35.1523C483.565 35.3867 483.618 35.5977 483.724 35.7852C483.835 35.9727 483.993 36.1221 484.198 36.2334C484.409 36.3389 484.655 36.3916 484.937 36.3916C485.347 36.3916 485.704 36.3096 486.009 36.1455C486.313 35.9756 486.551 35.7705 486.721 35.5303C486.891 35.29 486.981 35.0615 486.993 34.8447L487.661 35.8467C487.579 36.0869 487.456 36.3418 487.292 36.6113C487.128 36.8809 486.917 37.1328 486.659 37.3672C486.401 37.6016 486.091 37.7949 485.728 37.9473C485.364 38.0996 484.942 38.1758 484.462 38.1758C483.847 38.1758 483.296 38.0527 482.81 37.8066C482.323 37.5605 481.939 37.2236 481.658 36.7959C481.377 36.3682 481.236 35.8818 481.236 35.3369C481.236 34.833 481.33 34.3877 481.518 34.001C481.705 33.6143 481.983 33.2891 482.353 33.0254C482.722 32.7559 483.179 32.5537 483.724 32.4189C484.274 32.2783 484.904 32.208 485.613 32.208H487.178ZM493.603 30.4326V38H491.282V28.4902H493.479L493.603 30.4326ZM496.494 28.4287L496.459 30.5908C496.33 30.5674 496.184 30.5498 496.02 30.5381C495.861 30.5264 495.712 30.5205 495.571 30.5205C495.214 30.5205 494.9 30.5703 494.631 30.6699C494.361 30.7637 494.136 30.9014 493.954 31.083C493.778 31.2646 493.644 31.4873 493.55 31.751C493.456 32.0088 493.403 32.3018 493.392 32.6299L492.891 32.5684C492.891 31.9648 492.952 31.4053 493.075 30.8896C493.198 30.374 493.377 29.9229 493.611 29.5361C493.846 29.1494 494.139 28.8506 494.49 28.6396C494.848 28.4229 495.258 28.3145 495.721 28.3145C495.85 28.3145 495.987 28.3262 496.134 28.3496C496.286 28.3672 496.406 28.3936 496.494 28.4287ZM502.708 28.4902V30.1602H497.259V28.4902H502.708ZM498.718 26.1523H501.047V35.2578C501.047 35.5391 501.085 35.7559 501.161 35.9082C501.237 36.0605 501.352 36.1631 501.504 36.2158C501.656 36.2686 501.838 36.2949 502.049 36.2949C502.201 36.2949 502.342 36.2861 502.471 36.2686C502.6 36.251 502.708 36.2334 502.796 36.2158L502.805 37.9561C502.611 38.0205 502.392 38.0732 502.146 38.1143C501.905 38.1553 501.633 38.1758 501.328 38.1758C500.807 38.1758 500.35 38.0879 499.957 37.9121C499.564 37.7305 499.26 37.4404 499.043 37.042C498.826 36.6377 498.718 36.1045 498.718 35.4424V26.1523ZM508.808 32.9639V32.7969C508.808 31.5547 508.939 30.4268 509.203 29.4131C509.473 28.3936 509.824 27.5 510.258 26.7324C510.691 25.9648 511.16 25.3291 511.664 24.8252C512.174 24.3154 512.669 23.9492 513.149 23.7266L513.606 25.001C513.272 25.2529 512.938 25.5986 512.604 26.0381C512.276 26.4717 511.978 27.0078 511.708 27.6465C511.438 28.2852 511.222 29.0293 511.058 29.8789C510.899 30.7285 510.82 31.6953 510.82 32.7793V32.9814C510.82 34.0654 510.899 35.0352 511.058 35.8906C511.222 36.7402 511.438 37.4844 511.708 38.123C511.978 38.7617 512.276 39.3037 512.604 39.749C512.938 40.1943 513.272 40.5459 513.606 40.8037L513.149 42.043C512.669 41.8145 512.174 41.4482 511.664 40.9443C511.16 40.4404 510.691 39.8047 510.258 39.0371C509.824 38.2695 509.473 37.3789 509.203 36.3652C508.939 35.3457 508.808 34.2119 508.808 32.9639ZM523.345 30.5029V32.6562C523.345 33.6406 523.245 34.4814 523.046 35.1787C522.847 35.876 522.56 36.4473 522.185 36.8926C521.81 37.332 521.361 37.6572 520.84 37.8682C520.318 38.0732 519.738 38.1758 519.1 38.1758C518.59 38.1758 518.115 38.1113 517.676 37.9824C517.236 37.8477 516.841 37.6426 516.489 37.3672C516.144 37.0859 515.845 36.7285 515.593 36.2949C515.347 35.8613 515.156 35.3428 515.021 34.7393C514.893 34.1357 514.828 33.4414 514.828 32.6562V30.5029C514.828 29.5186 514.928 28.6807 515.127 27.9893C515.332 27.2979 515.622 26.7324 515.997 26.293C516.372 25.8535 516.82 25.5342 517.342 25.335C517.863 25.1299 518.443 25.0273 519.082 25.0273C519.598 25.0273 520.072 25.0918 520.506 25.2207C520.945 25.3496 521.338 25.5518 521.684 25.8271C522.035 26.0967 522.334 26.4482 522.58 26.8818C522.826 27.3096 523.014 27.8252 523.143 28.4287C523.277 29.0264 523.345 29.7178 523.345 30.5029ZM521.024 32.9727V30.1777C521.024 29.6855 520.995 29.2578 520.937 28.8945C520.884 28.5254 520.805 28.2119 520.699 27.9541C520.594 27.6963 520.462 27.4883 520.304 27.3301C520.146 27.166 519.964 27.0459 519.759 26.9697C519.554 26.8936 519.328 26.8555 519.082 26.8555C518.777 26.8555 518.505 26.917 518.265 27.04C518.024 27.1572 517.822 27.3447 517.658 27.6025C517.494 27.8604 517.368 28.2031 517.28 28.6309C517.198 29.0527 517.157 29.5684 517.157 30.1777V32.9727C517.157 33.4648 517.184 33.8955 517.236 34.2646C517.295 34.6338 517.377 34.9502 517.482 35.2139C517.594 35.4775 517.726 35.6943 517.878 35.8643C518.036 36.0283 518.218 36.1514 518.423 36.2334C518.628 36.3096 518.854 36.3477 519.1 36.3477C519.41 36.3477 519.683 36.2861 519.917 36.1631C520.157 36.04 520.359 35.8467 520.523 35.583C520.688 35.3135 520.811 34.9648 520.893 34.5371C520.98 34.1035 521.024 33.582 521.024 32.9727ZM529.488 32.7969V32.9639C529.488 34.1826 529.351 35.2988 529.075 36.3125C528.806 37.3262 528.448 38.2197 528.003 38.9932C527.563 39.7666 527.083 40.4111 526.562 40.9268C526.046 41.4424 525.539 41.8145 525.041 42.043L524.584 40.8037C524.918 40.5518 525.249 40.2061 525.577 39.7666C525.905 39.3271 526.204 38.7852 526.474 38.1406C526.749 37.4961 526.966 36.7461 527.124 35.8906C527.288 35.0352 527.37 34.0654 527.37 32.9814V32.7793C527.37 31.6953 527.285 30.7256 527.115 29.8701C526.951 29.0146 526.731 28.2676 526.456 27.6289C526.181 26.9844 525.879 26.4424 525.551 26.0029C525.223 25.5576 524.9 25.2119 524.584 24.9658L525.041 23.7266C525.539 23.9492 526.046 24.3213 526.562 24.8428C527.083 25.3584 527.563 26.0059 528.003 26.7852C528.448 27.5586 528.806 28.4521 529.075 29.4658C529.351 30.4736 529.488 31.584 529.488 32.7969Z" fill="#274C5B"/>
<circle cx="428.791" cy="33" r="28" fill="#274C5B"/>
<path d="M425.569 44.0001C426.244 44.0001 426.791 43.4529 426.791 42.7779C426.791 42.1029 426.244 41.5557 425.569 41.5557C424.894 41.5557 424.347 42.1029 424.347 42.7779C424.347 43.4529 424.894 44.0001 425.569 44.0001Z" fill="white" stroke="white" stroke-width="1.5" stroke-linecap="round" stroke-linejoin="round"/>
<path d="M434.125 44.0001C434.8 44.0001 435.347 43.4529 435.347 42.7779C435.347 42.1029 434.8 41.5557 434.125 41.5557C433.45 41.5557 432.902 42.1029 432.902 42.7779C432.902 43.4529 433.45 44.0001 434.125 44.0001Z" fill="white" stroke="white" stroke-width="1.5" stroke-linecap="round" stroke-linejoin="round"/>
<path d="M415.791 22H419.573L422.409 38.0731H437.537" stroke="white" stroke-width="2" stroke-linecap="round" stroke-linejoin="round"/>
<path d="M421.902 34.1837L437.149 34.2907C437.259 34.2908 437.365 34.2529 437.449 34.1837C437.534 34.1144 437.592 34.0179 437.613 33.9107L439.315 25.4014C439.329 25.3328 439.327 25.262 439.31 25.1941C439.293 25.1262 439.261 25.063 439.217 25.0089C439.173 24.9548 439.117 24.9112 439.054 24.8813C438.99 24.8514 438.921 24.8359 438.851 24.8359L420.358 24.8359" stroke="white" stroke-width="2" stroke-linecap="round" stroke-linejoin="round"/>
</svg>
