<svg width="64" height="22" viewBox="0 0 64 22" fill="none" xmlns="http://www.w3.org/2000/svg">
<path fill-rule="evenodd" clip-rule="evenodd" d="M22.3305 11.3773C22.3305 5.43989 17.3311 0.62561 11.1653 0.62561C4.99944 0.62561 0 5.43989 0 11.3773C0 16.7436 4.08229 21.1916 9.42068 21.999V14.4862H6.58501V11.3773H9.42068V9.0086C9.42068 6.31442 11.088 4.82502 13.6381 4.82502C14.8598 4.82502 16.1378 5.03526 16.1378 5.03526V7.68143H14.7292C13.343 7.68143 12.9093 8.50989 12.9093 9.36139V11.3773H16.0057L15.5112 14.4862H12.9098V21.9999C18.2482 21.1931 22.3305 16.745 22.3305 11.3773Z" fill="#274C5B"/>
<path d="M63.2556 4.0105C62.3581 4.40047 61.4086 4.65738 60.4369 4.77313C61.458 4.17518 62.226 3.22523 62.5967 2.10145C61.6312 2.66598 60.5767 3.06209 59.4784 3.2728C59.0159 2.78807 58.4596 2.40246 57.8434 2.1394C57.2272 1.87634 56.564 1.74132 55.894 1.74256C53.1815 1.74256 50.9863 3.90583 50.9863 6.57253C50.9844 6.94346 51.0269 7.31328 51.1129 7.6741C49.1678 7.58292 47.2632 7.08672 45.5208 6.21726C43.7785 5.34781 42.2368 4.12423 40.9944 2.62482C40.5585 3.35959 40.328 4.19794 40.327 5.05226C40.327 6.72705 41.2008 8.20744 42.5202 9.07474C41.7384 9.05619 40.9728 8.84929 40.2881 8.47162V8.53143C40.2881 10.8741 41.9828 12.8231 44.2258 13.2667C43.804 13.3791 43.3694 13.4361 42.9329 13.4362C42.6231 13.4367 42.3141 13.4067 42.0102 13.3464C42.6338 15.2655 44.4486 16.6611 46.5985 16.701C44.8516 18.0473 42.7069 18.7749 40.5014 18.7696C40.11 18.769 39.7189 18.7457 39.3301 18.6998C41.5737 20.1324 44.1817 20.8902 46.8437 20.883C55.8836 20.883 60.8222 13.5209 60.8222 7.13578C60.8222 6.92643 60.8167 6.71708 60.8067 6.51272C61.7653 5.83087 62.5946 4.98353 63.2556 4.0105Z" fill="#274C5B"/>
</svg>
